# xmcd CD database file
# Copyright (C) 1997 Ti Kan
# 
# Track frame offsets:
#     150
#     19903
#     39650
#     61165
#     80118
#     98980
# 
# Disc length: 1572 seconds
# 
# Revision: 1
# Processed by: cddbd v1.4b41PL1 Copyright (c) Steve Scherf et al.
# Submitted via: DiscPlay 4.0.3
# 
DISCID=49062206
DTITLE=Missy Elliot - Sockit2me
DYEAR=1900
DGENRE=
TTITLE0=Sockit2me (LP Version)
TTITLE1=Sockit2me (Radio Edit)
TTITLE2=Sockit2me (Instrumental)
TTITLE3=The Rain (LP Version)
TTITLE4=The Rain (Instrumental)
TTITLE5=Release the Tension
EXTD=
EXTT0=
EXTT1=
EXTT2=
EXTT3=
EXTT4=
EXTT5=
PLAYORDER=
